0
SECTION
2
HEADER
9
$INSUNITS
70
4
9
$ACADVER
1
AC1014
9
$HANDSEED
5
FFFF
0
ENDSEC
0
SECTION
2
TABLES
0
TABLE
2
VPORT
5
8
100
AcDbSymbolTable
0
ENDTAB
0
TABLE
2
LTYPE
5
5
100
AcDbSymbolTable
0
LTYPE
5
14
100
AcDbSymbolTableRecord
100
AcDbLinetypeTableRecord
2
BYBLOCK
70
0
0
LTYPE
5
15
100
AcDbSymbolTableRecord
100
AcDbLinetypeTableRecord
2
BYLAYER
70
0
0
LTYPE
5
16
100
AcDbSymbolTableRecord
100
AcDbLinetypeTableRecord
2
DASHED
70
0
3
Dashed __ __ __ __ __ __ __ __ __ __ __ __ __ _
72
65
73
2
40
0.75
49
0.5
74
0
49
-0.25
74
0
0
ENDTAB
0
TABLE
2
LAYER
5
2
100
AcDbSymbolTable
70
2
0
LAYER
5
50
100
AcDbSymbolTableRecord
100
AcDbLayerTableRecord
2
0
70
0
62
7
6
CONTINUOUS
0
ENDTAB
0
TABLE
2
STYLE
5
3
100
AcDbSymbolTable
70
1
0
STYLE
5
11
100
AcDbSymbolTableRecord
100
AcDbTextStyleTableRecord
2
STANDARD
70
0
0
ENDTAB
0
TABLE
2
VIEW
5
6
100
AcDbSymbolTable
70
0
0
ENDTAB
0
TABLE
2
UCS
5
7
100
AcDbSymbolTable
70
0
0
ENDTAB
0
TABLE
2
APPID
5
9
100
AcDbSymbolTable
70
2
0
APPID
5
12
100
AcDbSymbolTableRecord
100
AcDbRegAppTableRecord
2
ACAD
70
0
0
ENDTAB
0
TABLE
2
DIMSTYLE
5
A
100
AcDbSymbolTable
70
1
0
ENDTAB
0
TABLE
2
BLOCK_RECORD
5
1
100
AcDbSymbolTable
70
1
0
BLOCK_RECORD
5
1F
100
AcDbSymbolTableRecord
100
AcDbBlockTableRecord
2
*MODEL_SPACE
0
BLOCK_RECORD
5
1B
100
AcDbSymbolTableRecord
100
AcDbBlockTableRecord
2
*PAPER_SPACE
0
ENDTAB
0
ENDSEC
0
SECTION
2
BLOCKS
0
BLOCK
5
20
100
AcDbEntity
100
AcDbBlockBegin
2
*MODEL_SPACE
0
ENDBLK
5
21
100
AcDbEntity
100
AcDbBlockEnd
0
BLOCK
5
1C
100
AcDbEntity
100
AcDbBlockBegin
2
*PAPER_SPACE
0
ENDBLK
5
1D
100
AcDbEntity
100
AcDbBlockEnd
0
ENDSEC
0
SECTION
2
ENTITIES
0
LINE
5
100
100
AcDbEntity
8
0
100
AcDbLine
10
610
20
580
30
0
11
609.99999999999977
21
-1860
31
0
0
LINE
5
101
100
AcDbEntity
8
0
100
AcDbLine
10
-9.3768344637193557e-14
20
-1609.9999999999998
30
0
11
609.99999999999977
21
-1609.9999999999998
31
0
0
LINE
5
102
100
AcDbEntity
8
0
100
AcDbLine
10
-7.1054273576010019e-14
20
-1220
30
0
11
609.99999999999989
21
-1220
31
0
0
LINE
5
103
100
AcDbEntity
8
0
100
AcDbLine
10
-4.8121797985392043e-14
20
-819.99999999999989
30
0
11
609.99999999999989
21
-820
31
0
0
LINE
5
104
100
AcDbEntity
8
0
100
AcDbLine
10
-2.3660490688732858e-14
20
-400
30
0
11
609.99999999999989
21
-400.00000000000006
31
0
0
LINE
5
105
100
AcDbEntity
8
0
100
AcDbLine
10
609.99999999999989
20
300
30
0
11
0
21
300
31
0
0
LINE
5
106
100
AcDbEntity
8
0
100
AcDbLine
10
0
20
0
30
0
11
610
21
0
31
0
0
LINE
5
107
100
AcDbEntity
8
0
100
AcDbLine
10
3.3779900552529362e-14
20
580
30
0
11
-1.0832864659949067e-13
21
-1859.9999999999998
31
0
0
LINE
5
108
100
AcDbEntity
8
0
100
AcDbLine
10
3.3779900552529362e-14
20
580
30
0
11
610
21
580
31
0
0
LINE
5
109
100
AcDbEntity
8
0
100
AcDbLine
10
609.99999999999977
20
-1860
30
0
11
-1.0832864659949067e-13
21
-1859.9999999999998
31
0
0
LWPOLYLINE
5
110
100
AcDbEntity
8
0
100
AcDbPolyline
90
4
70
1
43
0.0
10
1.7472362354756566e-14
20
300
10
290.00000000000006
20
0
10
377.55551312934483
20
300
10
146.09975605311689
20
580
0
LINE
5
111
100
AcDbEntity
8
0
100
AcDbLine
10
289.99999999999989
20
-1220
30
0
11
290.00000000000006
21
0
31
0
0
LINE
5
112
100
AcDbEntity
8
0
100
AcDbLine
10
289.99999999999989
20
-1220
30
0
11
-7.1054273576010019e-14
21
-1609.9999999999998
31
0
0
LINE
5
113
100
AcDbEntity
8
0
100
AcDbLine
10
-9.3768344637193557e-14
20
-1609.9999999999998
30
0
11
167.56491039348083
21
-1859.9999999999998
31
0
0
LINE
5
114
100
AcDbEntity
8
0
100
AcDbLine
10
346.26350516126342
20
-1609.9999999999998
30
0
11
167.56491039348083
21
-1859.9999999999998
31
0
0
LINE
5
115
100
AcDbEntity
8
0
100
AcDbLine
10
346.26350516126342
20
-1609.9999999999998
30
0
11
289.99999999999989
21
-1220
31
0
0
LINE
5
116
100
AcDbEntity
8
0
100
AcDbLine
10
289.99999999999989
20
-1220
30
0
11
513.00000000000011
21
0
31
0
0
LINE
5
117
100
AcDbEntity
8
0
100
AcDbLine
10
513.00000000000011
20
0
30
0
11
500.04603718198905
21
-1219.9999999999991
31
0
0
LINE
5
118
100
AcDbEntity
8
0
100
AcDbLine
10
483.25487985713806
20
-1302.291488911434
30
0
11
500.04603718198905
21
-1219.9999999999991
31
0
0
LINE
5
119
100
AcDbEntity
8
0
100
AcDbLine
10
346.26350516126342
20
-1609.9999999999998
30
0
11
483.25487985713806
21
-1302.291488911434
31
0
0
LINE
5
120
100
AcDbEntity
8
0
100
AcDbLine
10
483.25487985713823
20
-1302.291488911434
30
0
11
610
21
-1220
31
0
0
LINE
5
121
100
AcDbEntity
8
0
100
AcDbLine
10
491.65045851956359
20
-1261.1457444557166
30
0
11
289.99999999999989
21
-1220
31
0
6
DASHED
0
LINE
5
122
100
AcDbEntity
8
0
100
AcDbLine
10
564.99999999999989
20
0
30
0
11
564.99999999999955
21
-1220
31
0
0
LINE
5
123
100
AcDbEntity
8
0
100
AcDbLine
10
513.00000000000011
20
0
30
0
11
497.98842916280171
21
80.435149868638177
31
0
0
LINE
5
124
100
AcDbEntity
8
0
100
AcDbLine
10
505.49421458140091
20
40.217574934319089
30
0
11
290.00000000000006
21
0
31
0
6
DASHED
0
LINE
5
125
100
AcDbEntity
8
0
100
AcDbLine
10
497.98842916280171
20
80.435149868638177
30
0
11
377.55551312934483
21
300
31
0
0
LINE
5
126
100
AcDbEntity
8
0
100
AcDbLine
10
497.98842916280188
20
80.435149868638177
30
0
11
610.00000000000011
21
0
31
0
0
LINE
5
127
100
AcDbEntity
8
0
100
AcDbLine
10
0
20
580
30
0
11
0
21
561.89705028643994
31
0
0
LINE
5
128
100
AcDbEntity
8
0
100
AcDbLine
10
0
20
561.89705028643994
30
0
11
146.09975605311689
21
580
31
0
0
ENDSEC
0
SECTION
2
OBJECTS
0
DICTIONARY
5
C
100
AcDbDictionary
3
ACAD_GROUP
350
D
3
ACAD_MLINESTYLE
350
17
0
DICTIONARY
5
D
100
AcDbDictionary
0
DICTIONARY
5
1A
330
C
100
AcDbDictionary
0
DICTIONARY
5
17
100
AcDbDictionary
0
ENDSEC
0
EOF
