0
SECTION
2
HEADER
9
$INSUNITS
70
4
9
$ACADVER
1
AC1014
9
$HANDSEED
5
FFFF
0
ENDSEC
0
SECTION
2
TABLES
0
TABLE
2
VPORT
5
8
100
AcDbSymbolTable
0
ENDTAB
0
TABLE
2
LTYPE
5
5
100
AcDbSymbolTable
0
LTYPE
5
14
100
AcDbSymbolTableRecord
100
AcDbLinetypeTableRecord
2
BYBLOCK
70
0
0
LTYPE
5
15
100
AcDbSymbolTableRecord
100
AcDbLinetypeTableRecord
2
BYLAYER
70
0
0
LTYPE
5
16
100
AcDbSymbolTableRecord
100
AcDbLinetypeTableRecord
2
DASHED
70
0
3
Dashed __ __ __ __ __ __ __ __ __ __ __ __ __ _
72
65
73
2
40
0.75
49
0.5
74
0
49
-0.25
74
0
0
ENDTAB
0
TABLE
2
LAYER
5
2
100
AcDbSymbolTable
70
2
0
LAYER
5
50
100
AcDbSymbolTableRecord
100
AcDbLayerTableRecord
2
0
70
0
62
7
6
CONTINUOUS
0
ENDTAB
0
TABLE
2
STYLE
5
3
100
AcDbSymbolTable
70
1
0
STYLE
5
11
100
AcDbSymbolTableRecord
100
AcDbTextStyleTableRecord
2
STANDARD
70
0
0
ENDTAB
0
TABLE
2
VIEW
5
6
100
AcDbSymbolTable
70
0
0
ENDTAB
0
TABLE
2
UCS
5
7
100
AcDbSymbolTable
70
0
0
ENDTAB
0
TABLE
2
APPID
5
9
100
AcDbSymbolTable
70
2
0
APPID
5
12
100
AcDbSymbolTableRecord
100
AcDbRegAppTableRecord
2
ACAD
70
0
0
ENDTAB
0
TABLE
2
DIMSTYLE
5
A
100
AcDbSymbolTable
70
1
0
ENDTAB
0
TABLE
2
BLOCK_RECORD
5
1
100
AcDbSymbolTable
70
1
0
BLOCK_RECORD
5
1F
100
AcDbSymbolTableRecord
100
AcDbBlockTableRecord
2
*MODEL_SPACE
0
BLOCK_RECORD
5
1B
100
AcDbSymbolTableRecord
100
AcDbBlockTableRecord
2
*PAPER_SPACE
0
ENDTAB
0
ENDSEC
0
SECTION
2
BLOCKS
0
BLOCK
5
20
100
AcDbEntity
100
AcDbBlockBegin
2
*MODEL_SPACE
0
ENDBLK
5
21
100
AcDbEntity
100
AcDbBlockEnd
0
BLOCK
5
1C
100
AcDbEntity
100
AcDbBlockBegin
2
*PAPER_SPACE
0
ENDBLK
5
1D
100
AcDbEntity
100
AcDbBlockEnd
0
ENDSEC
0
SECTION
2
ENTITIES
0
POINT
5
100
100
AcDbEntity
8
0
100
AcDbPoint
10
-610
20
0
30
0
0
POINT
5
101
100
AcDbEntity
8
0
100
AcDbPoint
10
610
20
0
30
0
0
POINT
5
102
100
AcDbEntity
8
0
100
AcDbPoint
10
296.00000000000023
20
0
30
0
0
POINT
5
103
100
AcDbEntity
8
0
100
AcDbPoint
10
516
20
-1.4210854715202004e-13
30
0
0
POINT
5
104
100
AcDbEntity
8
0
100
AcDbPoint
10
0
20
0
30
0
0
POINT
5
105
100
AcDbEntity
8
0
100
AcDbPoint
10
-516.00000000000023
20
-1.4210854715202004e-13
30
0
0
POINT
5
106
100
AcDbEntity
8
0
100
AcDbPoint
10
-533.00000000000011
20
-1.4210854715202004e-13
30
0
0
POINT
5
107
100
AcDbEntity
8
0
100
AcDbPoint
10
575
20
-1.4210854715202004e-13
30
0
0
POINT
5
108
100
AcDbEntity
8
0
100
AcDbPoint
10
610
20
-190.99999999999994
30
0
0
POINT
5
109
100
AcDbEntity
8
0
100
AcDbPoint
10
-610
20
-190.99999999999994
30
0
0
POINT
5
110
100
AcDbEntity
8
0
100
AcDbPoint
10
-575
20
-1.4210854715202004e-13
30
0
0
POINT
5
111
100
AcDbEntity
8
0
100
AcDbPoint
10
533.00000000000011
20
-1.4210854715202004e-13
30
0
0
POINT
5
112
100
AcDbEntity
8
0
100
AcDbPoint
10
-296.00000000000023
20
0
30
0
0
LINE
5
113
100
AcDbEntity
8
0
100
AcDbLine
10
-575
20
838.00000000000023
30
0
11
-575
21
0
31
0
6
DASHED
0
LINE
5
114
100
AcDbEntity
8
0
100
AcDbLine
10
-533.00000000000011
20
838.00000000000023
30
0
11
-533.00000000000011
21
0
31
0
6
DASHED
0
LINE
5
115
100
AcDbEntity
8
0
100
AcDbLine
10
-516.00000000000023
20
838.00000000000023
30
0
11
-516.00000000000023
21
0
31
0
6
DASHED
0
LINE
5
116
100
AcDbEntity
8
0
100
AcDbLine
10
-296.00000000000023
20
838.00000000000011
30
0
11
-296.00000000000023
21
0
31
0
6
DASHED
0
LINE
5
117
100
AcDbEntity
8
0
100
AcDbLine
10
296.00000000000023
20
838.00000000000011
30
0
11
296.00000000000023
21
0
31
0
6
DASHED
0
LINE
5
118
100
AcDbEntity
8
0
100
AcDbLine
10
516
20
838.00000000000023
30
0
11
516
21
0
31
0
6
DASHED
0
LINE
5
119
100
AcDbEntity
8
0
100
AcDbLine
10
533.00000000000011
20
838.00000000000023
30
0
11
533.00000000000011
21
0
31
0
6
DASHED
0
LINE
5
120
100
AcDbEntity
8
0
100
AcDbLine
10
575
20
838.00000000000023
30
0
11
575
21
0
31
0
6
DASHED
0
LINE
5
121
100
AcDbEntity
8
0
100
AcDbLine
10
-610
20
1029
30
0
11
610
21
1029
31
0
0
LINE
5
122
100
AcDbEntity
8
0
100
AcDbLine
10
-533.00000000000011
20
838.00000000000023
30
0
11
-469.09229397510433
21
1029.0000000000005
31
0
6
DASHED
0
LINE
5
123
100
AcDbEntity
8
0
100
AcDbLine
10
-516
20
838.00000000000023
30
0
11
-452.09229397510398
21
1029
31
0
6
DASHED
0
LINE
5
124
100
AcDbEntity
8
0
100
AcDbLine
10
-296.00000000000023
20
838.00000000000011
30
0
11
-285.38832083209752
21
1029
31
0
6
DASHED
0
LINE
5
125
100
AcDbEntity
8
0
100
AcDbLine
10
296.00000000000023
20
838.00000000000011
30
0
11
179.1841980032803
21
1029
31
0
6
DASHED
0
LINE
5
126
100
AcDbEntity
8
0
100
AcDbLine
10
-179.18419800327865
20
1029
30
0
11
-296.00000000000023
21
838.00000000000011
31
0
6
DASHED
0
LINE
5
127
100
AcDbEntity
8
0
100
AcDbLine
10
296.00000000000023
20
838.00000000000011
30
0
11
285.38832083209752
21
1029
31
0
6
DASHED
0
LINE
5
128
100
AcDbEntity
8
0
100
AcDbLine
10
516
20
838.00000000000023
30
0
11
452.09229397510393
21
1029
31
0
6
DASHED
0
LINE
5
129
100
AcDbEntity
8
0
100
AcDbLine
10
533.00000000000011
20
838.00000000000023
30
0
11
469.09229397510438
21
1029
31
0
6
DASHED
0
LINE
5
130
100
AcDbEntity
8
0
100
AcDbLine
10
-296.00000000000023
20
838.00000000000011
30
0
11
-610
21
838.00000000000011
31
0
0
LINE
5
131
100
AcDbEntity
8
0
100
AcDbLine
10
296.00000000000023
20
0
30
0
11
285.38832083209752
21
-190.99999999999994
31
0
6
DASHED
0
LINE
5
132
100
AcDbEntity
8
0
100
AcDbLine
10
-533.00000000000011
20
-1.4210854715202004e-13
30
0
11
-469.09229397510433
21
-191.00000000000023
31
0
6
DASHED
0
LINE
5
133
100
AcDbEntity
8
0
100
AcDbLine
10
-296.00000000000023
20
0
30
0
11
-285.38832083209752
21
-190.99999999999994
31
0
6
DASHED
0
LINE
5
134
100
AcDbEntity
8
0
100
AcDbLine
10
516
20
-1.4210854715202004e-13
30
0
11
452.09229397510393
21
-190.99999999999994
31
0
6
DASHED
0
LINE
5
135
100
AcDbEntity
8
0
100
AcDbLine
10
-610
20
-190.99999999999994
30
0
11
610
21
-190.99999999999994
31
0
0
LINE
5
136
100
AcDbEntity
8
0
100
AcDbLine
10
-296.00000000000023
20
0
30
0
11
-610
21
0
31
0
0
LINE
5
137
100
AcDbEntity
8
0
100
AcDbLine
10
-516
20
-1.4210854715202004e-13
30
0
11
-452.09229397510398
21
-190.99999999999994
31
0
6
DASHED
0
LINE
5
138
100
AcDbEntity
8
0
100
AcDbLine
10
-179.18419800327865
20
-190.99999999999994
30
0
11
-296.00000000000023
21
0
31
0
6
DASHED
0
LINE
5
139
100
AcDbEntity
8
0
100
AcDbLine
10
533.00000000000011
20
-1.4210854715202004e-13
30
0
11
469.09229397510438
21
-190.99999999999994
31
0
6
DASHED
0
LINE
5
140
100
AcDbEntity
8
0
100
AcDbLine
10
296.00000000000023
20
0
30
0
11
179.1841980032803
21
-190.99999999999994
31
0
6
DASHED
0
LINE
5
141
100
AcDbEntity
8
0
100
AcDbLine
10
296.00000000000023
20
0
30
0
11
610
21
0
31
0
0
LINE
5
142
100
AcDbEntity
8
0
100
AcDbLine
10
-610
20
1029
30
0
11
-610
21
-190.99999999999994
31
0
0
LINE
5
143
100
AcDbEntity
8
0
100
AcDbLine
10
610
20
-190.99999999999994
30
0
11
610
21
1029
31
0
0
LINE
5
144
100
AcDbEntity
8
0
100
AcDbLine
10
0
20
1029
30
0
11
0
21
-190.99999999999994
31
0
6
DASHED
0
LINE
5
145
100
AcDbEntity
8
0
100
AcDbLine
10
296.00000000000023
20
0
30
0
11
610
21
0
31
0
0
LINE
5
146
100
AcDbEntity
8
0
100
AcDbLine
10
296.00000000000023
20
838.00000000000011
30
0
11
610
21
838.00000000000011
31
0
0
ENDSEC
0
SECTION
2
OBJECTS
0
DICTIONARY
5
C
100
AcDbDictionary
3
ACAD_GROUP
350
D
3
ACAD_MLINESTYLE
350
17
0
DICTIONARY
5
D
100
AcDbDictionary
0
DICTIONARY
5
1A
330
C
100
AcDbDictionary
0
DICTIONARY
5
17
100
AcDbDictionary
0
ENDSEC
0
EOF
